<svg width="776" height="264" viewBox="0 0 776 264" fill="none" xmlns="http://www.w3.org/2000/svg">
<path d="M317.982 127.319L271.169 180.216C289.647 202.637 302.265 216.833 309.025 222.804C315.898 228.775 322.714 232.155 329.474 232.944L329.305 238.183C322.996 238.07 317.87 237.169 313.926 235.479C309.983 233.676 306.49 231.31 303.448 228.381C300.406 225.452 293.872 218.297 283.844 206.918C273.93 195.426 266.494 186.638 261.536 180.554L308.687 127.319H317.982ZM259.17 127.319V237H251.396V127.319H259.17ZM347.119 237V127.319H398.326V134.079H354.893V173.963H394.101V180.554H354.893V229.902H400.016V237H347.119ZM431.124 237V127.826C440.813 127.037 449.038 126.643 455.798 126.643C466.163 126.643 474.726 129.347 481.486 134.755C488.246 140.05 491.626 147.655 491.626 157.57C491.626 164.217 489.71 170.358 485.88 175.991C482.049 181.624 477.711 186.187 472.867 189.68C486.274 207.481 494.555 218.128 497.71 221.621C504.132 228.268 511.117 232.043 518.666 232.944L518.497 238.183C512.187 238.07 507.061 237.169 503.118 235.479C499.174 233.676 495.231 230.691 491.288 226.522C487.457 222.353 478.951 211.143 465.769 192.891C456.643 192.891 447.686 192.609 438.898 192.046V237H431.124ZM461.544 186.469C465.938 186.469 470.67 183.54 475.74 177.681C480.81 171.822 483.345 165.006 483.345 157.232C483.345 149.458 480.697 143.543 475.402 139.487C470.106 135.431 463.234 133.403 454.784 133.403C450.277 133.403 444.982 133.628 438.898 134.079V185.624C447.01 186.187 454.558 186.469 461.544 186.469ZM527.81 237V228.043H536.767V237H527.81ZM562.165 237V127.319H569.939V237H562.165ZM659.024 238.69C643.364 238.69 630.238 233.226 619.647 222.297C609.057 211.368 603.761 198.017 603.761 182.244C603.761 166.358 609.057 152.951 619.647 142.022C630.238 131.093 643.364 125.629 659.024 125.629C674.685 125.629 687.811 131.093 698.401 142.022C708.992 152.951 714.287 166.358 714.287 182.244C714.287 198.017 708.992 211.368 698.401 222.297C687.811 233.226 674.685 238.69 659.024 238.69ZM659.024 132.558C645.504 132.558 634.238 137.346 625.224 146.923C616.324 156.5 611.873 168.273 611.873 182.244C611.873 196.102 616.324 207.819 625.224 217.396C634.238 226.86 645.504 231.592 659.024 231.592C672.657 231.592 683.924 226.86 692.824 217.396C701.725 207.819 706.175 196.102 706.175 182.244C706.175 168.273 701.725 156.5 692.824 146.923C683.924 137.346 672.657 132.558 659.024 132.558Z" fill="#870C0C"/>
<circle cx="174" cy="176" r="61" fill="#FF9900"/>
<circle cx="174" cy="176" r="48.5" stroke="#870C0C" stroke-width="3"/>
<path d="M175.353 206.838H174.533V202.082H173.467C166.743 202.082 161.003 200.415 156.247 197.08L156.657 196.424C158.461 197.791 160.784 198.939 163.627 199.868C166.524 200.797 168.929 201.262 170.843 201.262C172.756 201.262 173.986 201.235 174.533 201.18V180.598C172.674 179.997 171.444 179.587 170.843 179.368C170.296 179.149 169.175 178.739 167.481 178.138C165.841 177.482 164.693 176.935 164.037 176.498C163.435 176.061 162.561 175.432 161.413 174.612C160.265 173.792 159.472 172.972 159.035 172.152C157.777 169.911 157.149 167.724 157.149 165.592C157.149 161.984 158.488 158.923 161.167 156.408C163.845 153.893 167.836 152.636 173.139 152.636H174.533V144.682H175.353V152.718C180.109 152.937 184.892 153.839 189.703 155.424L189.375 156.244C184.892 154.549 180.218 153.593 175.353 153.374V175.022C177.649 175.787 179.343 176.389 180.437 176.826C181.585 177.209 183.088 177.892 184.947 178.876C186.805 179.805 188.199 180.735 189.129 181.664C191.534 184.179 192.737 187.267 192.737 190.93C192.737 194.538 191.097 197.244 187.817 199.048C184.591 200.852 180.437 201.836 175.353 202V206.838ZM165.431 170.84C167.563 172.152 170.597 173.464 174.533 174.776V153.374C170.597 153.483 167.399 154.44 164.939 156.244C162.533 158.048 161.331 160.508 161.331 163.624C161.331 166.74 162.697 169.145 165.431 170.84ZM175.353 201.18C179.234 200.907 182.405 200.114 184.865 198.802C187.325 197.49 188.555 195.413 188.555 192.57C188.555 189.727 187.407 187.459 185.111 185.764C182.869 184.015 179.617 182.402 175.353 180.926V201.18Z" fill="#870C0C"/>
<path d="M0 74.5L24 20L50 17V237L35.5 208L25.5 187.5L16.5 166.5L10 148.5L5.5 131L1.5 111L0 90V74.5Z" fill="#870C0C"/>
<circle cx="75" cy="75" r="75" fill="#870C0C"/>
<path d="M75 35L110.604 73.6542L75.8791 80.2336L40.2747 72.8318L75 35Z" fill="#FF9900"/>
<ellipse cx="56.978" cy="85.9906" rx="21.978" ry="20.5607" fill="#FF9900"/>
<ellipse cx="93.022" cy="85.9906" rx="21.978" ry="20.5607" fill="#FF9900"/>
<rect x="73.2418" y="93.3925" width="3.51648" height="20.5607" fill="#FF9900"/>
<rect width="3.28975" height="21.9779" rx="1.64487" transform="matrix(0.0116729 -0.999932 0.999948 0.0102161 64.011 114.775)" fill="#FF9900"/>
</svg>
